<?xml version="1.0" encoding="utf-8"?>
<!-- Generator: Adobe Illustrator 16.2.1, SVG Export Plug-In . SVG Version: 6.00 Build 0)  -->
<!DOCTYPE svg PUBLIC "-//W3C//DTD SVG 1.1//EN" "http://www.w3.org/Graphics/SVG/1.1/DTD/svg11.dtd" [
	<!ENTITY ns_extend "http://ns.adobe.com/Extensibility/1.0/">
	<!ENTITY ns_ai "http://ns.adobe.com/AdobeIllustrator/10.0/">
	<!ENTITY ns_graphs "http://ns.adobe.com/Graphs/1.0/">
	<!ENTITY ns_vars "http://ns.adobe.com/Variables/1.0/">
	<!ENTITY ns_imrep "http://ns.adobe.com/ImageReplacement/1.0/">
	<!ENTITY ns_sfw "http://ns.adobe.com/SaveForWeb/1.0/">
	<!ENTITY ns_custom "http://ns.adobe.com/GenericCustomNamespace/1.0/">
	<!ENTITY ns_adobe_xpath "http://ns.adobe.com/XPath/1.0/">
]>
<svg version="1.1" id="Layer_1" xmlns:x="&ns_extend;" xmlns:i="&ns_ai;" xmlns:graph="&ns_graphs;"
	 xmlns="http://www.w3.org/2000/svg" xmlns:xlink="http://www.w3.org/1999/xlink" x="0px" y="0px" width="48.401px"
	 height="102.281px" viewBox="0 0 48.401 102.281" enable-background="new 0 0 48.401 102.281" xml:space="preserve">
<metadata>
	<sfw  xmlns="&ns_sfw;">
		<slices></slices>
		<sliceSourceBounds  width="38.864" height="94.749" bottomLeftOrigin="true" y="-105.929" x="20.045"></sliceSourceBounds>
	</sfw>
</metadata>
<g>
	<path fill="#EC6603" d="M9.311,3.532c0.178-0.045,0.305,0.133,0.437,0.221c0.951,0.882,2.074,1.57,3.28,2.042
		c0.414,0.204,0.85,0.356,1.31,0.407c2.941,0.717,6.183,0.104,8.627-1.69c0.429-0.282,0.773-0.667,1.193-0.959
		c0.161-0.103,0.294,0.078,0.411,0.165c1.629,1.62,3.235,3.261,4.873,4.874c0.144,0.125,0.28,0.358,0.13,0.53
		c-0.378,0.416-0.827,0.756-1.247,1.129c-2.982,2.401-6.724,3.852-10.553,4.021c-0.81,0.032-1.62,0.017-2.431-0.024
		c-3.519-0.283-6.947-1.594-9.73-3.768c-0.598-0.476-1.204-0.954-1.707-1.537c0.266-0.32,0.545-0.626,0.85-0.911
		c1.271-1.269,2.543-2.541,3.813-3.812C8.809,3.984,9.026,3.718,9.311,3.532L9.311,3.532z"/>
	<path fill="#BB4E2E" d="M37.184,3.644c-0.068-0.192,0.337-0.185,0.271,0.006C37.387,3.65,37.252,3.646,37.184,3.644L37.184,3.644z"
		/>
	<path fill="#E83E0D" d="M37.089,3.617l0.095,0.027c0.068,0.002,0.203,0.006,0.271,0.006l0.091-0.024
		c1.675,1.719,3.4,3.39,5.078,5.105c-0.083,0.12-0.069,0.273-0.053,0.413c-0.038,0.152-0.179,0.247-0.268,0.367
		c-1.69,1.925-2.614,4.503-2.549,7.062c0.03,2.546,1.046,5.064,2.783,6.928c0.155,0.128,0.256,0.383,0.063,0.529
		c-1.655,1.672-3.325,3.326-4.984,4.992c-0.112,0.133-0.314,0.266-0.472,0.125c-3.789-3.803-5.703-9.362-5.103-14.689
		C32.427,10.405,34.274,6.545,37.089,3.617L37.089,3.617z"/>
	<path fill="#ECB282" d="M13.027,5.794c0.443,0.107,0.884,0.234,1.31,0.407C13.877,6.15,13.441,5.999,13.027,5.794L13.027,5.794z"/>
	<path fill="#C74D28" d="M42.57,9.144c-0.016-0.139-0.031-0.292,0.053-0.413C42.779,8.808,42.764,9.136,42.57,9.144L42.57,9.144z"/>
	<path fill="#DE006F" d="M9.037,16.565c0.173-0.195,0.408-0.006,0.539,0.136c1.622,1.629,3.25,3.253,4.875,4.878
		c0.127,0.107,0.181,0.27,0.175,0.432c-1.125,1.174-1.992,2.597-2.476,4.15c-0.665,2.087-0.643,4.378,0.04,6.456
		c0.41,1.214,1.029,2.358,1.846,3.348c0.188,0.232,0.409,0.437,0.569,0.689c0.096,0.178-0.07,0.306-0.173,0.427
		c-1.625,1.622-3.251,3.244-4.87,4.873c-0.116,0.108-0.24,0.233-0.416,0.208c-0.286-0.215-0.509-0.499-0.749-0.765
		c-1.29-1.473-2.346-3.151-3.105-4.958c-1.304-3.081-1.708-6.52-1.24-9.83C4.626,22.855,6.363,19.271,9.037,16.565L9.037,16.565z"/>
	<path fill="#DC030E" d="M22.105,31.756c0.114-0.088,0.233-0.258,0.397-0.193c0.315,0.195,0.562,0.479,0.856,0.699
		c2.159,1.721,5.017,2.525,7.754,2.18c2.151-0.245,4.214-1.187,5.81-2.647c0.163-0.143,0.411-0.38,0.598-0.135
		c0.76,0.722,1.474,1.485,2.227,2.208c0.904,0.911,1.813,1.817,2.721,2.722c0.107,0.125,0.281,0.254,0.237,0.442
		c-0.25,0.372-0.635,0.627-0.962,0.93c-2.778,2.393-6.293,3.875-9.932,4.278c-1.697,0.129-3.416,0.122-5.095-0.181
		c-3.309-0.561-6.447-2.075-8.961-4.299c-0.25-0.232-0.543-0.435-0.722-0.731c-0.048-0.163,0.098-0.279,0.189-0.39
		C18.854,35.014,20.479,33.384,22.105,31.756L22.105,31.756z"/>
</g>
<g>
	<path fill="#FFFFFF" d="M9.311,59.467c0.178-0.045,0.305,0.133,0.437,0.221c0.951,0.882,2.074,1.57,3.28,2.042
		c0.414,0.204,0.85,0.356,1.31,0.407c2.941,0.717,6.183,0.104,8.627-1.69c0.429-0.282,0.773-0.667,1.193-0.959
		c0.161-0.103,0.294,0.078,0.411,0.165c1.629,1.62,3.235,3.261,4.873,4.874c0.144,0.125,0.28,0.358,0.13,0.53
		c-0.378,0.416-0.827,0.756-1.247,1.129c-2.982,2.401-6.724,3.852-10.553,4.021c-0.81,0.032-1.62,0.017-2.431-0.024
		c-3.519-0.283-6.947-1.594-9.73-3.768c-0.598-0.476-1.204-0.954-1.707-1.537c0.266-0.32,0.545-0.626,0.85-0.911
		c1.271-1.269,2.543-2.541,3.813-3.812C8.809,59.919,9.026,59.653,9.311,59.467L9.311,59.467z"/>
	<path fill="#FFFFFF" d="M37.184,59.579c-0.068-0.192,0.337-0.185,0.271,0.006C37.387,59.585,37.252,59.582,37.184,59.579
		L37.184,59.579z"/>
	<path fill="#FFFFFF" d="M37.089,59.552l0.095,0.027c0.068,0.002,0.203,0.006,0.271,0.006l0.091-0.024
		c1.675,1.719,3.4,3.39,5.078,5.105c-0.083,0.12-0.069,0.273-0.053,0.413c-0.038,0.152-0.179,0.247-0.268,0.367
		c-1.69,1.925-2.614,4.503-2.549,7.062c0.03,2.546,1.046,5.064,2.783,6.928c0.155,0.128,0.256,0.383,0.063,0.529
		c-1.655,1.672-3.325,3.326-4.984,4.992c-0.112,0.133-0.314,0.266-0.472,0.125c-3.789-3.803-5.703-9.362-5.103-14.689
		C32.427,66.34,34.274,62.48,37.089,59.552L37.089,59.552z"/>
	<path fill="#FFFFFF" d="M13.027,61.729c0.443,0.107,0.884,0.234,1.31,0.407C13.877,62.085,13.441,61.934,13.027,61.729
		L13.027,61.729z"/>
	<path fill="#FFFFFF" d="M42.57,65.079c-0.016-0.139-0.031-0.292,0.053-0.413C42.779,64.743,42.764,65.071,42.57,65.079
		L42.57,65.079z"/>
	<path fill="#FFFFFF" d="M9.037,72.5c0.173-0.195,0.408-0.006,0.539,0.136c1.622,1.629,3.25,3.253,4.875,4.878
		c0.127,0.107,0.181,0.27,0.175,0.432c-1.125,1.174-1.992,2.597-2.476,4.15c-0.665,2.087-0.643,4.378,0.04,6.456
		c0.41,1.214,1.029,2.358,1.846,3.348c0.188,0.232,0.409,0.437,0.569,0.689c0.096,0.178-0.07,0.306-0.173,0.427
		c-1.625,1.622-3.251,3.244-4.87,4.873c-0.116,0.108-0.24,0.233-0.416,0.208c-0.286-0.215-0.509-0.499-0.749-0.765
		c-1.29-1.473-2.346-3.151-3.105-4.958c-1.304-3.081-1.708-6.52-1.24-9.83C4.626,78.791,6.363,75.207,9.037,72.5L9.037,72.5z"/>
	<path fill="#FFFFFF" d="M22.105,87.691c0.114-0.088,0.233-0.258,0.397-0.193c0.315,0.195,0.562,0.479,0.856,0.699
		c2.159,1.721,5.017,2.525,7.754,2.18c2.151-0.245,4.214-1.187,5.81-2.647c0.163-0.143,0.411-0.38,0.598-0.135
		c0.76,0.722,1.474,1.485,2.227,2.208c0.904,0.911,1.813,1.817,2.721,2.722c0.107,0.125,0.281,0.254,0.237,0.442
		c-0.25,0.372-0.635,0.627-0.962,0.93c-2.778,2.393-6.293,3.875-9.932,4.278c-1.697,0.129-3.416,0.122-5.095-0.181
		c-3.309-0.561-6.447-2.075-8.961-4.299c-0.25-0.232-0.543-0.435-0.722-0.731c-0.048-0.163,0.098-0.279,0.189-0.39
		C18.854,90.949,20.479,89.319,22.105,87.691L22.105,87.691z"/>
</g>
</svg>
