<?xml version="1.0" encoding="utf-8"?>
<!-- Generator: Adobe Illustrator 18.1.1, SVG Export Plug-In . SVG Version: 6.00 Build 0)  -->
<svg version="1.1" id="Layer_1" xmlns="http://www.w3.org/2000/svg" xmlns:xlink="http://www.w3.org/1999/xlink" x="0px" y="0px"
	 viewBox="0 0 259.8 62.5" enable-background="new 0 0 259.8 62.5" xml:space="preserve">
<path fill="#672180" d="M178.7,23.3l9.1,0c3.1,0,3.4,0.8,3.4,3.1h-8.8V30h8.1v2.8h-8.1v4.2h9v3.1h-9.2c-3,0-3.4-0.9-3.4-3.4
	L178.7,23.3z"/>
<path fill="#672180" d="M196.5,26.2v14c-2.8,0-3.3-0.8-3.3-3.1V23.5C196.1,23.5,196.5,23.9,196.5,26.2"/>
<path fill="#672180" d="M202.4,25.1c0,0.9-0.7,1.7-1.6,1.7c-0.9,0-1.7-0.7-1.7-1.7c0-0.9,0.7-1.6,1.7-1.6
	C201.6,23.5,202.4,24.2,202.4,25.1 M202.4,30.8l0,9.4c-2.9,0-3.3-0.8-3.3-3.1v-9C201.9,28.1,202.4,28.6,202.4,30.8"/>
<path fill="#672180" d="M210.2,30.2c-2.2,0-2.9,1.9-2.9,3.9c0,2.1,0.7,3.8,2.9,3.8c2.2,0,2.9-1.8,2.9-3.8
	C213.1,32.1,212.4,30.2,210.2,30.2 M216.4,34.1c0,4-2.6,6.3-6.2,6.3c-3.6,0-6.2-2.3-6.2-6.3c0-4,2.5-6.3,6.2-6.3
	C213.9,27.8,216.4,30.1,216.4,34.1"/>
<path fill="#672180" d="M221.2,28.4v1.7h0.1c0.4-0.7,0.9-1.2,1.6-1.5c0.6-0.3,1.3-0.5,2-0.5c0.9,0,1.6,0.2,2.1,0.4
	c0.6,0.2,1,0.6,1.3,1c0.3,0.4,0.5,0.9,0.7,1.5c0.1,0.6,0.2,1.3,0.2,2v7.2h-3.2v-6.6c0-1-0.2-1.7-0.5-2.2c-0.3-0.5-0.8-0.7-1.6-0.7
	c-0.9,0-1.5,0.3-1.9,0.8c-0.4,0.5-0.6,1.4-0.6,2.6v6.1h-3.2V28.4H221.2z"/>
<path fill="#672180" d="M108.8,29.4v6.7c0,1.2,0.5,1.6,1.7,1.6c0.4,0,0.6,0,0.9-0.1v2.5c-0.6,0.1-1.2,0.1-1.9,0.1
	c-2.1,0-4-0.7-4-3.2v-7.8h-2.2V27h2.2v-0.6c0-2.6,0.8-3.3,3.3-3.3V27h2.6v2.4H108.8z"/>
<path fill="#672180" d="M101.3,27.8c-0.7-0.9-1.7-1.3-3.1-1.3c-0.9,0-1.7,0.2-2.4,0.5c-0.7,0.3-1.3,0.8-1.7,1.4c0,0-0.1,0.1-0.1,0.1
	c0,0-0.1,0.2-0.3,0.4c-0.1-0.4-0.3-0.8-0.6-1.1c-0.7-0.9-1.7-1.3-3.1-1.3c-0.9,0-1.7,0.2-2.4,0.5c-0.7,0.3-1.3,0.8-1.7,1.4
	c0,0-0.1,0.1-0.1,0.1V27h0h-3.4v13.2h3.5v-7.6c0-0.3,0-0.5,0-0.7c0.1-0.7,0.3-1.3,0.6-1.8c0.5-0.6,1.1-0.9,1.9-0.9
	c0.7,0,1.3,0.3,1.6,0.8c0.4,0.5,0.5,1.4,0.6,2.5l0,0v7.7h3.5v-7.7c0-0.2,0-0.4,0-0.6c0.1-0.7,0.3-1.3,0.6-1.8
	c0.4-0.6,1.1-0.9,1.9-0.9c0.7,0,1.3,0.3,1.6,0.8c0.4,0.5,0.5,1.4,0.6,2.5l0,0v7.7h3.5v-8.4C102.3,30,102,28.7,101.3,27.8"/>
<path fill="#672180" d="M71.1,32c0-0.3,0.2-2.8,3-2.8c1.9,0,2.5,1.1,2.9,2.8H71.1z M74.3,26.4c-4.2,0-6.8,3.2-6.8,7
	c0,3.3,1.9,6.9,6.8,6.9c4.4,0,5.7-2.8,6.2-4.4h-2.3c-0.5,0-0.9,0.2-1.3,0.7c-0.1,0.2-0.9,1.1-2.5,1.1c-3.1,0-3.2-2.5-3.3-3.4h9.5
	C80.9,30.4,78.9,26.4,74.3,26.4"/>
<path fill="#672180" d="M170.1,17.4c-1.2-1-2.9-1.6-5-1.8c-4.5-0.4-10.6,0.9-15.4,3.6c-1.6,0.9-3.1,1.9-4.3,3.1
	c0.7,0.2,1.5,0.4,2.2,0.6C157.2,24.7,165.3,23.3,170.1,17.4 M164.3,28.5c-5.9-2.2-14.7-3.3-20.4-4.6c-0.9,1.2-1.6,2.4-2,3.8
	c-0.3,0.9-0.4,1.9-0.3,2.8c0,0.8,0.3,1.9,0.9,3.1C144.9,37.7,156.4,33.8,164.3,28.5 M172.4,22.6c-0.7,1.6-2.2,3.4-4.1,5.3
	c1.5,0.7,2.8,1.6,3.5,2.7c0.3-1.1,0.5-2.3,0.6-3.4C172.6,25.6,172.6,24,172.4,22.6 M154.4,24.6c4.3,0.8,8.5,1.4,11.8,2.5
	c3.2-2.4,5.4-5,5.5-7.1c-0.1-0.1-0.1-0.3-0.2-0.4c-0.1-0.3-0.3-0.7-0.5-1c-0.1-0.2-0.3-0.4-0.5-0.6
	C166.6,23.1,160.7,24.7,154.4,24.6 M149,43.6c0.3,0.3,0.6,0.6,0.8,0.8c1.4,1.3,2.9,2.3,4.5,2.9c1.5,0.6,3.1,0.7,4.7,0.2
	c1.8-0.6,3.5-1.6,5-3c0.4-0.3,0.7-0.7,1-1c1.5-1.6,2.8-3.5,3.9-5.5C165.4,42.3,155.7,46.5,149,43.6 M166.5,29.5
	c-6.2,5.3-15.7,10.1-22,8.5c0.1,0.2,0.2,0.4,0.3,0.5l0,0c6.2,9.9,23.3,2.3,25.2-4C170.6,32.4,169.1,30.8,166.5,29.5"/>
<path fill="#672180" d="M59.1,17.4c-1.2-1-2.9-1.6-5-1.8c-4.5-0.4-10.6,0.9-15.4,3.6c-1.6,0.9-3.1,1.9-4.3,3.1
	c0.7,0.2,1.5,0.4,2.2,0.6C46.2,24.7,54.3,23.3,59.1,17.4 M53.3,28.5c-5.9-2.2-14.7-3.3-20.4-4.6c-0.9,1.2-1.7,2.4-2,3.8
	c-0.3,0.9-0.4,1.9-0.3,2.8c0,0.8,0.3,1.9,0.9,3.1C33.9,37.7,45.4,33.8,53.3,28.5 M61.4,22.6c-0.7,1.6-2.2,3.4-4.1,5.3
	c1.5,0.7,2.8,1.6,3.5,2.7c0.3-1.1,0.5-2.3,0.6-3.4C61.5,25.6,61.5,24,61.4,22.6 M43.4,24.6c4.3,0.8,8.5,1.4,11.8,2.5
	c3.2-2.4,5.4-5,5.5-7.1c-0.1-0.1-0.1-0.3-0.2-0.4c-0.1-0.3-0.3-0.7-0.5-1c-0.1-0.2-0.3-0.4-0.5-0.6C55.6,23.1,49.7,24.7,43.4,24.6
	 M38,43.6c0.3,0.3,0.6,0.6,0.8,0.8c1.4,1.3,2.9,2.3,4.5,2.9c1.5,0.6,3.1,0.7,4.7,0.2c1.8-0.6,3.5-1.6,5-3c0.4-0.3,0.7-0.7,1-1
	c1.5-1.6,2.8-3.5,3.9-5.5C54.4,42.3,44.7,46.5,38,43.6 M55.5,29.5c-6.2,5.3-15.7,10.1-22,8.5c0.1,0.2,0.2,0.4,0.3,0.5l0,0
	c6.2,9.9,23.3,2.3,25.2-4C59.6,32.4,58.1,30.8,55.5,29.5"/>
</svg>
