<?xml version="1.0" encoding="utf-8"?>
<!-- Generator: Adobe Illustrator 18.1.1, SVG Export Plug-In . SVG Version: 6.00 Build 0)  -->
<svg version="1.1" id="Layer_1" xmlns="http://www.w3.org/2000/svg" xmlns:xlink="http://www.w3.org/1999/xlink" x="0px" y="0px"
	 viewBox="0 0 232 50" enable-background="new 0 0 232 50" xml:space="preserve">
<g>
	<path fill="#FFFFFF" d="M160.9,17.5l8.4,0c2.9,0,3.2,0.8,3.2,2.9h-8.2v3.5h7.5v2.6h-7.5v3.9h8.4v2.9h-8.6c-2.8,0-3.2-0.8-3.2-3.2
		L160.9,17.5z"/>
	<path fill="#FFFFFF" d="M177.5,20.2v13.1c-2.7,0-3-0.7-3.1-2.9V17.7C177.1,17.7,177.5,18.1,177.5,20.2"/>
	<path fill="#FFFFFF" d="M182.9,19.2c0,0.9-0.7,1.5-1.5,1.5c-0.9,0-1.5-0.7-1.5-1.5c0-0.8,0.7-1.5,1.5-1.5
		C182.2,17.7,182.9,18.4,182.9,19.2 M182.9,24.5l0,8.7c-2.7,0-3.1-0.7-3.1-2.9V22C182.5,22,182.9,22.4,182.9,24.5"/>
	<path fill="#FFFFFF" d="M190.2,24c-2.1,0-2.7,1.8-2.7,3.6c0,1.9,0.7,3.6,2.7,3.6c2,0,2.7-1.6,2.7-3.6C193,25.7,192.3,24,190.2,24
		 M196,27.6c0,3.7-2.4,5.9-5.8,5.9c-3.4,0-5.8-2.1-5.8-5.9c0-3.7,2.4-5.9,5.8-5.9C193.6,21.7,196,23.9,196,27.6"/>
	<path fill="#FFFFFF" d="M200.5,22.2v1.6h0.1c0.4-0.6,0.9-1.1,1.5-1.4c0.6-0.3,1.2-0.5,1.9-0.5c0.8,0,1.5,0.2,2,0.4
		c0.5,0.2,0.9,0.5,1.2,0.9c0.3,0.4,0.5,0.9,0.6,1.4c0.1,0.6,0.2,1.2,0.2,1.8v6.7h-3V27c0-0.9-0.2-1.6-0.4-2
		c-0.3-0.4-0.8-0.7-1.5-0.7c-0.8,0-1.4,0.2-1.8,0.7c-0.4,0.5-0.5,1.3-0.5,2.4v5.7h-3V22.2H200.5z"/>
	<path fill="#FFFFFF" d="M95.8,23.2v6.3c0,1.1,0.5,1.5,1.6,1.5c0.4,0,0.5,0,0.9-0.1v2.3c-0.6,0.1-1.2,0.1-1.8,0.1
		c-2,0-3.7-0.6-3.7-2.9v-7.2h-2v-2.2h2v-0.5c0-2.4,0.8-3.1,3.1-3.1v3.6h2.4v2.2H95.8z"/>
	<path fill="#FFFFFF" d="M88.8,21.7c-0.6-0.8-1.6-1.2-2.9-1.2c-0.8,0-1.6,0.2-2.3,0.5c-0.6,0.3-1.2,0.7-1.6,1.3c0,0-0.1,0.1-0.1,0.1
		c0,0-0.1,0.2-0.3,0.4c-0.1-0.4-0.3-0.7-0.5-1c-0.6-0.8-1.6-1.2-2.9-1.2c-0.8,0-1.6,0.2-2.3,0.5c-0.6,0.3-1.2,0.7-1.6,1.3
		c0,0-0.1,0.1-0.1,0.1v-1.4h0h-3.2v12.3h3.3v-7.1c0-0.2,0-0.5,0-0.7c0.1-0.7,0.3-1.2,0.6-1.7c0.4-0.6,1-0.8,1.8-0.8
		c0.7,0,1.2,0.3,1.5,0.7c0.3,0.5,0.5,1.3,0.5,2.3l0,0v7.2h3.3V26c0-0.2,0-0.4,0-0.5c0.1-0.7,0.3-1.2,0.6-1.7c0.4-0.6,1-0.8,1.7-0.8
		c0.7,0,1.2,0.3,1.5,0.7c0.3,0.5,0.5,1.3,0.5,2.3l0,0v7.2h3.3v-7.9C89.7,23.7,89.4,22.5,88.8,21.7"/>
	<path fill="#FFFFFF" d="M60.7,25.6c0-0.2,0.2-2.6,2.8-2.6c1.7,0,2.4,1,2.7,2.6H60.7z M63.6,20.4c-3.9,0-6.3,3-6.3,6.5
		c0,3.1,1.8,6.5,6.3,6.5c4.1,0,5.3-2.6,5.8-4.1h-2.1c-0.5,0-0.9,0.2-1.2,0.6c-0.1,0.2-0.9,1-2.3,1c-2.9,0-3-2.3-3-3.1h8.9
		C69.8,24.2,68,20.4,63.6,20.4"/>
	<path fill="#FFFFFF" d="M152.9,12.1c-1.1-0.9-2.7-1.5-4.6-1.7c-4.2-0.4-9.9,0.9-14.3,3.4c-1.5,0.8-2.9,1.8-4,2.9
		c0.7,0.2,1.4,0.4,2.1,0.5C140.9,18.8,148.4,17.5,152.9,12.1 M147.5,22.4c-5.5-2-13.7-3.1-19-4.3c-0.9,1.1-1.5,2.3-1.9,3.5
		c-0.2,0.9-0.3,1.7-0.3,2.7c0,0.7,0.3,1.7,0.8,2.9C129.4,31,140.2,27.3,147.5,22.4 M155,16.9c-0.7,1.5-2,3.2-3.8,5
		c1.4,0.7,2.6,1.5,3.3,2.5c0.3-1.1,0.5-2.1,0.6-3.2C155.2,19.7,155.2,18.2,155,16.9 M138.3,18.7c4,0.7,7.9,1.3,10.9,2.3
		c2.9-2.3,5-4.7,5.1-6.7c-0.1-0.1-0.1-0.3-0.2-0.4c-0.1-0.3-0.3-0.6-0.5-0.9c-0.1-0.2-0.3-0.4-0.4-0.6
		C149.6,17.3,144.1,18.8,138.3,18.7 M133.2,36.4c0.3,0.3,0.5,0.5,0.8,0.8c1.3,1.2,2.7,2.1,4.2,2.7c1.4,0.5,2.9,0.6,4.3,0.2
		c1.7-0.5,3.3-1.5,4.7-2.8c0.3-0.3,0.6-0.6,1-1c1.4-1.5,2.6-3.3,3.7-5.2C148.5,35.2,139.5,39.1,133.2,36.4 M149.6,23.3
		c-5.8,4.9-14.6,9.4-20.5,7.9c0.1,0.2,0.2,0.3,0.3,0.5l0,0c5.7,9.2,21.7,2.2,23.5-3.7C153.3,26,151.9,24.5,149.6,23.3"/>
	<path fill="#FFFFFF" d="M49.5,12.1c-1.1-0.9-2.7-1.5-4.6-1.7c-4.2-0.4-9.9,0.9-14.4,3.4c-1.5,0.8-2.9,1.8-4,2.9
		c0.7,0.2,1.4,0.4,2.1,0.5C37.5,18.8,45,17.5,49.5,12.1 M44.1,22.4c-5.5-2-13.7-3.1-19-4.3c-0.9,1.1-1.5,2.3-1.9,3.5
		c-0.2,0.9-0.3,1.7-0.3,2.7c0,0.7,0.3,1.7,0.8,2.9C26.1,31,36.8,27.3,44.1,22.4 M51.6,16.9c-0.7,1.5-2,3.2-3.8,5
		c1.4,0.7,2.6,1.5,3.3,2.5c0.3-1.1,0.5-2.1,0.6-3.2C51.8,19.7,51.8,18.2,51.6,16.9 M34.9,18.7c4,0.7,7.9,1.3,11,2.3
		c3-2.3,5-4.7,5.1-6.7c-0.1-0.1-0.1-0.3-0.1-0.4c-0.1-0.3-0.3-0.6-0.5-0.9c-0.1-0.2-0.3-0.4-0.4-0.6C46.2,17.3,40.7,18.8,34.9,18.7
		 M29.8,36.4c0.3,0.3,0.5,0.5,0.8,0.8c1.3,1.2,2.7,2.1,4.2,2.7c1.4,0.5,2.9,0.6,4.3,0.2c1.7-0.5,3.3-1.5,4.7-2.8
		c0.3-0.3,0.7-0.6,1-1c1.4-1.5,2.6-3.3,3.7-5.2C45.1,35.2,36.1,39.1,29.8,36.4 M46.2,23.3c-5.8,4.9-14.6,9.4-20.5,7.9
		c0.1,0.2,0.2,0.3,0.3,0.5l0,0c5.7,9.2,21.7,2.2,23.5-3.7C50,26,48.6,24.5,46.2,23.3"/>
</g>
<rect x="0" y="0" fill="none" width="232.1" height="50"/>
</svg>
