<?xml version="1.0" encoding="utf-8"?>
<!-- Generator: Adobe Illustrator 16.2.1, SVG Export Plug-In . SVG Version: 6.00 Build 0)  -->
<!DOCTYPE svg PUBLIC "-//W3C//DTD SVG 1.1//EN" "http://www.w3.org/Graphics/SVG/1.1/DTD/svg11.dtd" [
	<!ENTITY ns_extend "http://ns.adobe.com/Extensibility/1.0/">
	<!ENTITY ns_ai "http://ns.adobe.com/AdobeIllustrator/10.0/">
	<!ENTITY ns_graphs "http://ns.adobe.com/Graphs/1.0/">
	<!ENTITY ns_vars "http://ns.adobe.com/Variables/1.0/">
	<!ENTITY ns_imrep "http://ns.adobe.com/ImageReplacement/1.0/">
	<!ENTITY ns_sfw "http://ns.adobe.com/SaveForWeb/1.0/">
	<!ENTITY ns_custom "http://ns.adobe.com/GenericCustomNamespace/1.0/">
	<!ENTITY ns_adobe_xpath "http://ns.adobe.com/XPath/1.0/">
]>
<svg version="1.1" id="Layer_1" xmlns:x="&ns_extend;" xmlns:i="&ns_ai;" xmlns:graph="&ns_graphs;"
	 xmlns="http://www.w3.org/2000/svg" xmlns:xlink="http://www.w3.org/1999/xlink" x="0px" y="0px" width="67.06px"
	 height="54.689px" viewBox="0 0 67.06 54.689" enable-background="new 0 0 67.06 54.689" xml:space="preserve">
<metadata>
	<sfw  xmlns="&ns_sfw;">
		<slices></slices>
		<sliceSourceBounds  width="62.27" height="38.88" bottomLeftOrigin="true" y="789.12" x="22"></sliceSourceBounds>
	</sfw>
</metadata>
<g>
	<path fill-rule="evenodd" clip-rule="evenodd" fill="#0000CC" d="M50.888,43.309c0-3.967,3.215-7.182,7.182-7.182
		c3.969,0,7.182,3.215,7.182,7.182s-3.213,7.183-7.182,7.183C54.103,50.491,50.888,47.275,50.888,43.309L50.888,43.309z"/>
	<path fill-rule="evenodd" clip-rule="evenodd" fill="#0000CC" d="M26.195,18.794c0-3.967,3.215-7.183,7.183-7.183
		c3.965,0,7.182,3.216,7.182,7.183s-3.217,7.182-7.182,7.182C29.41,25.976,26.195,22.761,26.195,18.794L26.195,18.794z"/>
	<path fill-rule="evenodd" clip-rule="evenodd" fill="#0000CC" d="M6.266,35.948c-0.012,0.469-0.173,0.858-0.482,1.169
		c-0.311,0.31-0.7,0.472-1.169,0.482c-0.46-0.011-0.843-0.173-1.151-0.482c-0.309-0.311-0.469-0.7-0.481-1.169
		c0.013-0.47,0.178-0.858,0.493-1.17c0.316-0.31,0.708-0.47,1.179-0.481c0.46,0.012,0.839,0.172,1.142,0.481
		C6.098,35.09,6.255,35.479,6.266,35.948L6.266,35.948z"/>
	<polygon fill-rule="evenodd" clip-rule="evenodd" fill="#0000CC" points="5.947,48.943 3.281,48.943 3.281,38.933 5.947,38.515 
		5.947,48.943 	"/>
	<path fill-rule="evenodd" clip-rule="evenodd" fill="#0000CC" d="M14.595,48.724c-0.762,0.312-1.485,0.465-2.168,0.458
		c-0.688-0.005-1.274-0.144-1.761-0.41c-0.488-0.267-0.817-0.628-0.985-1.081c-0.079-0.2-0.128-0.398-0.149-0.601
		c-0.023-0.201-0.033-0.525-0.031-0.973v-5.532H8.485v-1.831H9.5c-0.002-0.488,0.002-0.919,0.013-1.294
		c0.009-0.373,0.039-0.745,0.088-1.114l2.706-0.677c-0.05,0.474-0.089,0.975-0.117,1.506c-0.029,0.53-0.042,1.057-0.042,1.579h2.388
		l-0.676,1.831h-1.711v5.114c-0.008,0.635,0.068,1.068,0.234,1.301c0.165,0.233,0.471,0.345,0.919,0.331
		c0.115,0,0.245-0.015,0.389-0.047c0.145-0.032,0.333-0.083,0.566-0.152L14.595,48.724L14.595,48.724z"/>
	<path fill-rule="evenodd" clip-rule="evenodd" fill="#0000CC" d="M24.642,44.669H18.75v0.081c0.004,0.789,0.191,1.397,0.562,1.823
		c0.368,0.424,0.898,0.64,1.588,0.644c0.913,0,1.775-0.338,2.587-1.015l1.036,1.592c-1.151,0.949-2.432,1.42-3.841,1.413
		c-1.48-0.02-2.648-0.497-3.505-1.435s-1.294-2.218-1.311-3.839c-0.003-0.907,0.098-1.685,0.301-2.333
		c0.203-0.649,0.528-1.218,0.973-1.706c0.809-0.927,1.877-1.385,3.205-1.373c0.595,0.001,1.15,0.095,1.666,0.283
		c0.516,0.185,0.942,0.449,1.278,0.79c0.465,0.47,0.809,1.066,1.027,1.788c0.22,0.723,0.329,1.611,0.326,2.67V44.669L24.642,44.669z
		 M21.876,42.719v-0.12c0.001-0.369-0.023-0.673-0.07-0.906c-0.048-0.234-0.131-0.442-0.249-0.625
		c-0.251-0.398-0.644-0.597-1.174-0.597c-0.51,0.003-0.902,0.195-1.176,0.573c-0.274,0.381-0.413,0.925-0.416,1.637v0.038H21.876
		L21.876,42.719z"/>
	<path fill-rule="evenodd" clip-rule="evenodd" fill="#0000CC" d="M31.514,48.902c-0.471,0.184-1.002,0.277-1.593,0.279
		c-0.574-0.004-1.072-0.129-1.489-0.376c-0.418-0.245-0.711-0.584-0.878-1.017c-0.066-0.164-0.116-0.332-0.15-0.5
		c-0.036-0.17-0.058-0.392-0.071-0.664c-0.012-0.273-0.02-0.648-0.019-1.124v-7.603c0-0.654-0.01-1.217-0.032-1.689
		c-0.022-0.472-0.057-0.93-0.107-1.375l2.727-0.617c0.051,0.266,0.085,0.596,0.107,0.994c0.022,0.399,0.032,0.949,0.032,1.652v7.941
		c0,0.574,0.003,1.009,0.011,1.305c0.008,0.295,0.025,0.508,0.052,0.642c0.025,0.13,0.063,0.238,0.117,0.322
		c0.12,0.182,0.299,0.274,0.538,0.277c0.078,0.008,0.178-0.006,0.297-0.039L31.514,48.902L31.514,48.902z"/>
	<path fill-rule="evenodd" clip-rule="evenodd" fill="#0000CC" d="M37.612,48.902c-0.475,0.184-1.004,0.277-1.594,0.279
		c-0.576-0.004-1.072-0.129-1.49-0.376c-0.418-0.245-0.71-0.584-0.877-1.017c-0.066-0.164-0.117-0.332-0.151-0.5
		c-0.035-0.17-0.059-0.392-0.07-0.664c-0.013-0.273-0.019-0.648-0.018-1.124v-7.603c0-0.654-0.011-1.217-0.034-1.689
		c-0.021-0.472-0.058-0.93-0.106-1.375l2.727-0.617c0.049,0.266,0.086,0.596,0.107,0.994c0.021,0.399,0.031,0.949,0.031,1.652v7.941
		c0,0.574,0.004,1.009,0.012,1.305c0.008,0.295,0.025,0.508,0.051,0.642c0.025,0.13,0.062,0.238,0.117,0.322
		c0.119,0.182,0.299,0.274,0.537,0.277c0.08,0.008,0.18-0.006,0.299-0.039L37.612,48.902L37.612,48.902z"/>
	<path fill-rule="evenodd" clip-rule="evenodd" fill="#0000CC" d="M48.079,47.826l-1.412,1.634
		c-0.314-0.134-0.598-0.306-0.852-0.521c-0.254-0.216-0.447-0.452-0.582-0.714c-0.205,0.209-0.41,0.388-0.617,0.537
		c-0.514,0.363-1.197,0.55-2.049,0.557c-1.139-0.006-2.006-0.282-2.604-0.83c-0.596-0.549-0.896-1.333-0.9-2.354
		c0.012-2.362,1.643-3.529,4.896-3.503c0.189-0.003,0.389,0.003,0.598,0.02v-0.417c0.01-0.56-0.066-0.953-0.232-1.182
		c-0.164-0.229-0.486-0.339-0.961-0.331c-0.863,0.017-1.846,0.4-2.945,1.154l-1.135-1.911c0.258-0.164,0.512-0.309,0.758-0.433
		s0.545-0.258,0.893-0.402c0.494-0.208,0.965-0.359,1.416-0.456s0.908-0.144,1.371-0.141c0.859,0.002,1.572,0.155,2.135,0.459
		c0.561,0.304,0.945,0.741,1.148,1.312c0.07,0.191,0.119,0.41,0.15,0.662c0.029,0.251,0.039,0.639,0.029,1.169l-0.061,3.423
		c-0.023,0.539,0.021,0.973,0.135,1.298C47.372,47.183,47.646,47.506,48.079,47.826L48.079,47.826z M44.517,44.483h-0.119
		c-0.912-0.011-1.559,0.096-1.938,0.321c-0.377,0.226-0.562,0.636-0.549,1.231c0.006,0.403,0.117,0.726,0.332,0.965
		s0.496,0.363,0.842,0.369c0.514-0.015,0.979-0.247,1.395-0.698L44.517,44.483L44.517,44.483z"/>
</g>
</svg>
