<?xml version="1.0" encoding="utf-8"?>
<!-- Generator: Adobe Illustrator 16.2.1, SVG Export Plug-In . SVG Version: 6.00 Build 0)  -->
<!DOCTYPE svg PUBLIC "-//W3C//DTD SVG 1.1//EN" "http://www.w3.org/Graphics/SVG/1.1/DTD/svg11.dtd" [
	<!ENTITY ns_extend "http://ns.adobe.com/Extensibility/1.0/">
	<!ENTITY ns_ai "http://ns.adobe.com/AdobeIllustrator/10.0/">
	<!ENTITY ns_graphs "http://ns.adobe.com/Graphs/1.0/">
	<!ENTITY ns_vars "http://ns.adobe.com/Variables/1.0/">
	<!ENTITY ns_imrep "http://ns.adobe.com/ImageReplacement/1.0/">
	<!ENTITY ns_sfw "http://ns.adobe.com/SaveForWeb/1.0/">
	<!ENTITY ns_custom "http://ns.adobe.com/GenericCustomNamespace/1.0/">
	<!ENTITY ns_adobe_xpath "http://ns.adobe.com/XPath/1.0/">
]>
<svg version="1.1" id="Layer_1" xmlns:x="&ns_extend;" xmlns:i="&ns_ai;" xmlns:graph="&ns_graphs;"
	 xmlns="http://www.w3.org/2000/svg" xmlns:xlink="http://www.w3.org/1999/xlink" x="0px" y="0px" width="48.401px"
	 height="102.281px" viewBox="0 0 48.401 102.281" enable-background="new 0 0 48.401 102.281" xml:space="preserve">
<metadata>
	<sfw  xmlns="&ns_sfw;">
		<slices></slices>
		<sliceSourceBounds  width="39.056" height="94.814" bottomLeftOrigin="true" y="-106.191" x="19.642"></sliceSourceBounds>
	</sfw>
</metadata>
<path fill-rule="evenodd" clip-rule="evenodd" fill="#0000CC" d="M28.155,35.398c0-3.967,3.215-7.182,7.182-7.182
	c3.969,0,7.182,3.215,7.182,7.182s-3.213,7.182-7.182,7.182C31.37,42.58,28.155,39.365,28.155,35.398L28.155,35.398z"/>
<path fill-rule="evenodd" clip-rule="evenodd" fill="#0000CC" d="M3.462,10.883c0-3.967,3.215-7.183,7.183-7.183
	c3.965,0,7.182,3.216,7.182,7.183s-3.217,7.182-7.182,7.182C6.677,18.065,3.462,14.85,3.462,10.883L3.462,10.883z"/>
<path fill-rule="evenodd" clip-rule="evenodd" fill="#FFFFFF" d="M28.155,91.333c0-3.967,3.215-7.182,7.182-7.182
	c3.969,0,7.182,3.215,7.182,7.182s-3.213,7.182-7.182,7.182C31.37,98.515,28.155,95.3,28.155,91.333L28.155,91.333z"/>
<path fill-rule="evenodd" clip-rule="evenodd" fill="#FFFFFF" d="M3.462,66.818c0-3.967,3.215-7.183,7.183-7.183
	c3.965,0,7.182,3.216,7.182,7.183S14.61,74,10.645,74C6.677,74,3.462,70.785,3.462,66.818L3.462,66.818z"/>
</svg>
