<?xml version="1.0" encoding="utf-8"?>
<!-- Generator: Adobe Illustrator 16.2.1, SVG Export Plug-In . SVG Version: 6.00 Build 0)  -->
<!DOCTYPE svg PUBLIC "-//W3C//DTD SVG 1.1//EN" "http://www.w3.org/Graphics/SVG/1.1/DTD/svg11.dtd" [
	<!ENTITY ns_extend "http://ns.adobe.com/Extensibility/1.0/">
	<!ENTITY ns_ai "http://ns.adobe.com/AdobeIllustrator/10.0/">
	<!ENTITY ns_graphs "http://ns.adobe.com/Graphs/1.0/">
	<!ENTITY ns_vars "http://ns.adobe.com/Variables/1.0/">
	<!ENTITY ns_imrep "http://ns.adobe.com/ImageReplacement/1.0/">
	<!ENTITY ns_sfw "http://ns.adobe.com/SaveForWeb/1.0/">
	<!ENTITY ns_custom "http://ns.adobe.com/GenericCustomNamespace/1.0/">
	<!ENTITY ns_adobe_xpath "http://ns.adobe.com/XPath/1.0/">
]>
<svg version="1.1" id="Layer_1" xmlns:x="&ns_extend;" xmlns:i="&ns_ai;" xmlns:graph="&ns_graphs;"
	 xmlns="http://www.w3.org/2000/svg" xmlns:xlink="http://www.w3.org/1999/xlink" x="0px" y="0px" width="67.06px"
	 height="54.689px" viewBox="0 0 67.06 54.689" enable-background="new 0 0 67.06 54.689" xml:space="preserve">
<metadata>
	<sfw  xmlns="&ns_sfw;">
		<slices></slices>
		<sliceSourceBounds  width="53.903" height="52.192" bottomLeftOrigin="true" y="785.932" x="24.923"></sliceSourceBounds>
	</sfw>
</metadata>
<g>
	<path fill="#EC6603" d="M11.06,1.513c0.163-0.041,0.279,0.123,0.399,0.204c0.869,0.805,1.895,1.432,2.996,1.863
		c0.377,0.188,0.776,0.326,1.196,0.373c2.686,0.653,5.645,0.093,7.88-1.544c0.391-0.256,0.705-0.608,1.089-0.875
		c0.146-0.094,0.27,0.071,0.375,0.152c1.488,1.479,2.958,2.978,4.45,4.451c0.133,0.114,0.257,0.327,0.12,0.484
		C29.218,7,28.807,7.31,28.425,7.651c-2.724,2.193-6.141,3.518-9.637,3.671c-0.74,0.03-1.481,0.016-2.221-0.021
		c-3.212-0.259-6.345-1.457-8.886-3.441C7.135,7.426,6.582,6.987,6.125,6.457c0.241-0.292,0.496-0.573,0.774-0.831
		c1.16-1.161,2.322-2.321,3.482-3.481C10.601,1.928,10.801,1.685,11.06,1.513L11.06,1.513z"/>
	<path fill="#BB4E2E" d="M36.516,1.617c-0.063-0.177,0.307-0.169,0.247,0.005C36.701,1.621,36.576,1.618,36.516,1.617L36.516,1.617z
		"/>
	<path fill="#E83E0D" d="M36.427,1.593l0.088,0.024c0.061,0,0.185,0.004,0.247,0.005L36.845,1.6c1.53,1.57,3.104,3.096,4.638,4.662
		c-0.077,0.11-0.063,0.25-0.05,0.376C41.4,6.778,41.271,6.864,41.19,6.975c-1.543,1.758-2.388,4.111-2.328,6.448
		c0.026,2.326,0.955,4.625,2.542,6.326c0.141,0.118,0.233,0.352,0.058,0.485c-1.512,1.525-3.038,3.036-4.552,4.559
		c-0.103,0.121-0.287,0.243-0.433,0.113c-3.46-3.471-5.208-8.549-4.658-13.415C32.171,7.791,33.858,4.266,36.427,1.593L36.427,1.593
		z"/>
	<path fill="#ECB282" d="M14.455,3.58c0.406,0.099,0.808,0.214,1.196,0.373C15.23,3.906,14.832,3.768,14.455,3.58L14.455,3.58z"/>
	<path fill="#C74D28" d="M41.434,6.639c-0.014-0.126-0.027-0.266,0.05-0.376C41.625,6.332,41.61,6.632,41.434,6.639L41.434,6.639z"
		/>
	<path fill="#DE006F" d="M10.811,13.418c0.157-0.179,0.371-0.007,0.491,0.124c1.481,1.488,2.967,2.971,4.452,4.455
		c0.116,0.099,0.165,0.246,0.16,0.396c-1.027,1.07-1.82,2.371-2.261,3.791c-0.607,1.905-0.587,3.997,0.037,5.894
		c0.374,1.11,0.939,2.154,1.686,3.057c0.171,0.212,0.373,0.399,0.519,0.63c0.088,0.161-0.063,0.279-0.158,0.39
		c-1.484,1.481-2.969,2.962-4.448,4.449c-0.105,0.1-0.22,0.214-0.378,0.191c-0.261-0.197-0.466-0.456-0.684-0.698
		c-1.178-1.345-2.144-2.877-2.836-4.527c-1.191-2.815-1.56-5.956-1.13-8.979C6.783,19.162,8.368,15.887,10.811,13.418L10.811,13.418
		z"/>
	<path fill="#DC030E" d="M22.744,27.29c0.104-0.08,0.214-0.236,0.365-0.177c0.287,0.178,0.513,0.438,0.782,0.639
		c1.971,1.571,4.582,2.306,7.082,1.991c1.963-0.224,3.849-1.083,5.307-2.418c0.147-0.132,0.373-0.35,0.545-0.124
		c0.692,0.659,1.347,1.356,2.034,2.016c0.826,0.833,1.654,1.66,2.486,2.484c0.096,0.115,0.255,0.233,0.214,0.404
		c-0.23,0.34-0.58,0.575-0.878,0.85c-2.536,2.186-5.747,3.539-9.07,3.907c-1.549,0.118-3.119,0.111-4.652-0.166
		c-3.023-0.513-5.89-1.894-8.184-3.926c-0.228-0.214-0.497-0.398-0.66-0.669c-0.043-0.148,0.089-0.255,0.173-0.355
		C19.775,30.264,21.26,28.777,22.744,27.29L22.744,27.29z"/>
	<path fill="#DC030E" d="M40.828,41.829c0.756-0.206,1.571,0.479,1.489,1.259c-0.026,0.739-0.826,1.314-1.534,1.086
		c-0.694-0.169-1.096-1.024-0.777-1.665C40.156,42.172,40.47,41.917,40.828,41.829L40.828,41.829z"/>
	<path fill="#C93038" d="M31.413,45.684c1.003-0.357,2.072-0.483,3.129-0.56c0.812-0.022,1.668-0.044,2.423,0.309
		c-0.927-0.23-1.884-0.177-2.828-0.171c-0.651,0.01-1.286,0.163-1.921,0.288c-0.408,0.101-0.844,0.201-1.17,0.483
		c-0.183,0.156-0.145,0.42-0.159,0.636c0.021,2.234-0.01,4.471,0.015,6.705c0.62,0.016,1.241,0.019,1.86-0.005
		c0.044-2.168-0.01-4.338,0.027-6.507c0.023-0.008,0.071-0.026,0.095-0.034c0.004,1.721,0,3.442,0.002,5.162
		c-0.006,0.489,0.029,0.981-0.042,1.467c-0.624,0.052-1.252,0.054-1.877,0.016c-0.226-0.015-0.191-0.299-0.2-0.458
		c0.013-2.188-0.01-4.377,0.013-6.565C30.762,46.068,31.077,45.793,31.413,45.684L31.413,45.684z"/>
	<path fill="#DC030E" d="M17.533,45.485c1.145-0.269,2.326-0.396,3.501-0.331c0.55,0.025,1.081,0.201,1.548,0.488
		c0.705-0.195,1.419-0.368,2.147-0.45c1.027-0.07,2.144-0.17,3.092,0.315c0.718,0.364,0.958,1.226,0.944,1.977
		c-0.012,1.99,0.03,3.98-0.022,5.97c-0.674,0.042-1.346,0.023-2.019,0.015c-0.069-0.561-0.031-1.126-0.038-1.69
		c-0.007-1.364,0.012-2.728-0.008-4.091c0.005-0.442-0.19-0.966-0.673-1.065c-0.822-0.162-1.666,0.024-2.47,0.197
		c0.001,1.857-0.001,3.711,0,5.568c-0.047,0.348,0.125,0.789-0.125,1.071c-0.654,0-1.344,0.121-1.974-0.089
		c0.068-1.688,0.008-3.381,0.03-5.069c-0.014-0.452,0.05-0.946-0.191-1.354c-0.219-0.351-0.677-0.388-1.052-0.389
		c-0.649,0.02-1.296,0.11-1.928,0.264c-0.143,0.152-0.157,0.362-0.156,0.56c0.01,1.984,0.006,3.968,0.003,5.953
		c-0.593,0.048-1.188,0.049-1.781-0.002c-0.008-1.778,0.002-3.557-0.004-5.334c-0.005-0.642,0.042-1.287-0.057-1.922
		C16.608,45.708,17.094,45.602,17.533,45.485L17.533,45.485z"/>
	<path fill="#DC030E" d="M32.215,45.549c0.635-0.125,1.271-0.277,1.921-0.288c0.944-0.005,1.901-0.059,2.828,0.171
		c0.771,0.298,1.104,1.172,1.088,1.945c0,1.985,0.025,3.974-0.011,5.958c-0.027,0.032-0.082,0.094-0.11,0.126
		c-0.632,0.038-1.266,0.015-1.9,0.005c-0.117-0.381-0.063-0.783-0.071-1.174c-0.005-1.569,0.01-3.141-0.007-4.71
		c0.015-0.435-0.233-0.92-0.701-0.979c-0.79-0.11-1.602,0.027-2.369,0.224c-0.024,0.008-0.072,0.026-0.095,0.034
		c-0.038,2.168,0.017,4.339-0.027,6.507c-0.619,0.024-1.24,0.021-1.86,0.005c-0.025-2.233,0.006-4.47-0.015-6.705
		c0.015-0.216-0.024-0.48,0.159-0.636C31.371,45.75,31.807,45.65,32.215,45.549L32.215,45.549z"/>
	<path fill="#DC030E" d="M43.806,45.386c0.233-0.121,0.509-0.059,0.761-0.075c0.418,0.017,0.854-0.058,1.255,0.093
		c0.466,1.718,0.903,3.443,1.359,5.164c0.14,0.502,0.228,1.021,0.441,1.501c0.219-0.591,0.316-1.215,0.47-1.824
		c0.386-1.621,0.745-3.25,1.147-4.867c0.519-0.097,1.045-0.062,1.571-0.067c0.19,0.007,0.405-0.02,0.559,0.123
		c0.024,0.313-0.108,0.608-0.188,0.905c-0.657,2.239-1.308,4.479-1.959,6.719c-0.059,0.169-0.124,0.429-0.357,0.411
		c-0.854,0.015-1.711,0.018-2.565,0c-0.233,0.013-0.294-0.247-0.352-0.418c-0.341-1.147-0.68-2.295-1.027-3.44
		c-0.366-1.243-0.737-2.484-1.111-3.726C43.772,45.721,43.685,45.537,43.806,45.386L43.806,45.386z"/>
	<path fill="#DC030E" d="M40.112,45.488c0.621-0.035,1.247-0.034,1.869-0.011c0.167,0.01,0.163,0.243,0.164,0.369
		c-0.001,2.384-0.004,4.77,0.001,7.154c-0.012,0.159,0.037,0.355-0.121,0.461c-0.635,0.037-1.272,0.021-1.907-0.003
		c-0.071-0.42-0.041-0.846-0.044-1.271c0-1.737,0-3.475,0-5.212C40.08,46.479,40.048,45.982,40.112,45.488L40.112,45.488z"/>
	<path fill="#B52029" d="M16.221,46.331c0.021-0.064,0.062-0.191,0.082-0.254c0.098,0.636,0.051,1.28,0.057,1.922
		c0.006,1.778-0.004,3.557,0.004,5.334c0.594,0.051,1.188,0.05,1.781,0.002c0.003-1.985,0.007-3.969-0.003-5.953
		c-0.001-0.198,0.013-0.408,0.156-0.56c0.029,2.061,0,4.123,0.015,6.184c-0.026,0.143,0.035,0.35-0.109,0.441
		c-0.347,0.075-0.707,0.028-1.059,0.041c-0.316-0.013-0.659,0.052-0.944-0.118C16.254,51.024,16.212,48.677,16.221,46.331
		L16.221,46.331z"/>
	<path fill="#FFBEC5" d="M16.13,47.178c0-0.286,0.022-0.572,0.09-0.848c-0.008,2.347,0.034,4.694-0.021,7.04
		c-0.112-0.625-0.054-1.263-0.061-1.892C16.136,50.044,16.145,48.612,16.13,47.178L16.13,47.178z"/>
	<path fill="#DC030E" d="M9.322,45.209c1.179-0.248,2.461,0.034,3.423,0.761c1.02,0.756,1.677,1.981,1.714,3.253
		c0.054,1.065-0.319,2.14-1.01,2.95c-0.798,0.946-2.022,1.522-3.263,1.505c-1.164,0.015-2.316-0.488-3.113-1.333
		c-0.841-0.879-1.27-2.125-1.15-3.337C6.056,47.177,7.519,45.55,9.322,45.209L9.322,45.209z M9.629,46.925
		c0.373,0.062,0.759,0.086,1.123-0.034C10.381,46.82,9.987,46.775,9.629,46.925L9.629,46.925z M9.312,47.135
		c-1.175,0.425-1.853,1.83-1.44,3.012c0.362,1.214,1.767,1.971,2.979,1.592c1.291-0.334,2.101-1.837,1.644-3.096
		C12.107,47.354,10.556,46.63,9.312,47.135L9.312,47.135z"/>
	<path fill="#DC030E" d="M52.79,45.725c1.193-0.444,2.477-0.59,3.742-0.604c0.988,0.033,2.127,0.126,2.801,0.951
		c0.406,0.711,0.324,1.548,0.328,2.334c-0.023,1.381,0.048,2.764-0.041,4.143c-0.146,0.297-0.34,0.592-0.674,0.698
		c-1.254,0.457-2.622,0.477-3.94,0.398c-0.855-0.073-1.817-0.323-2.31-1.093c-0.468-0.768-0.48-1.755-0.212-2.595
		c0.234-0.724,0.916-1.197,1.629-1.378c1.136-0.296,2.322-0.25,3.476-0.431c-0.011-0.345,0.013-0.699-0.09-1.032
		c-0.113-0.31-0.467-0.421-0.763-0.462c-0.681-0.089-1.372-0.041-2.047,0.072c-0.553,0.087-1.086,0.27-1.644,0.332
		C52.94,46.614,52.822,46.177,52.79,45.725L52.79,45.725z M59.333,46.071c0.406,0.711,0.324,1.548,0.328,2.334
		c-0.023,1.381,0.048,2.764-0.041,4.143c0.047-0.032,0.141-0.094,0.188-0.125v-5.708C59.706,46.467,59.601,46.18,59.333,46.071
		L59.333,46.071z M55.613,49.742c-0.403,0.051-0.862,0.197-1.043,0.596c-0.285,0.617-0.17,1.564,0.542,1.831
		c0.797,0.28,1.671,0.153,2.469-0.058c0.003-0.858,0.001-1.717,0.002-2.574C56.923,49.58,56.268,49.667,55.613,49.742L55.613,49.742
		z"/>
</g>
</svg>
